<?xml version="1.0" encoding="UTF-8"?>
<svg id="Flag" xmlns="http://www.w3.org/2000/svg" version="1.1" viewBox="0 0 1990 1050">
  <!-- Generator: Adobe Illustrator 29.5.0, SVG Export Plug-In . SVG Version: 2.1.0 Build 137)  -->
  <defs>
    <style>
      .st0 {
        fill: #fff;
      }

      .st1 {
        fill: #d70a16;
      }

      .st2 {
        fill: #2b9e45;
      }
    </style>
  </defs>
  <g>
    <rect class="st2" x="-33.2" y="-20.9" width="2058.7" height="359.9"/>
    <rect class="st0" x="-33.2" y="339" width="2058.7" height="368.5"/>
    <rect class="st1" x="-33.2" y="707.5" width="2058.7" height="368.5"/>
  </g>
  <g>
    <path class="st1" d="M942.2,432.6c-.4,1.5-69.8,18-74.4,89.7-3.5,86.8,48.7,103.6,48.7,103.6-13.4-16.5-26.5-47.5-26.5-93.5s52.2-99.8,52.2-99.8Z"/>
    <path class="st1" d="M1124.6,522.4c-4.6-71.8-74.1-88.2-74.4-89.7,0,0,52.2,53.9,52.2,99.8s-13,77-26.5,93.5c0,0,52.2-16.8,48.7-103.6Z"/>
    <path class="st1" d="M1068.2,587c39.8-97.2-28.6-149.2-28.6-149.2,0,0,32.8,50.5,17.3,110.3-11,36.3-28.3,60-46.8,75.4l1.3-182.1-15.2-16.1-15.6,16.5,3.4,183.2c-19.1-15.4-37.3-39.4-48.6-76.9-15.5-59.8,17.3-110.3,17.3-110.3,0,0-68.4,52-28.6,149.2,12.2,29.9,30.3,47.5,49.4,57.6-25.7,9.4-46.5,7.4-46.5,7.4,0,0,27.6,8.8,59.7,3.3l9.5,15.7,11.5-15.4c31.1,4.7,57.5-3.6,57.5-3.6,0,0-20.8,1.9-46.5-7.4,19.1-10.1,37.1-27.8,49.4-57.6Z"/>
    <path class="st1" d="M979.5,428.9c12.7,0,15.9-10.4,16.6-17.8.7,7.4,3.9,17.8,16.6,17.8,19.8,0,18.4-21.8,15-29.6,0,0-1.6,17.5-15.2,17.5s-16.4-13.1-16.4-13.1c0,0,0,0,0,0,0,0,0,0,0,0,0,0-2.8,13.1-16.4,13.1s-15.2-17.5-15.2-17.5c-3.5,7.8-4.8,29.6,15,29.6Z"/>
  </g>
  <g>
    <g>
      <g>
        <rect class="st0" x="-.3" y="277.9" width="119.6" height="10.7"/>
        <polygon class="st0" points="55.5 296.7 55.5 307.8 73.8 307.8 73.8 316 47.8 316 47.8 296.2 47.8 296.2 37.6 296.2 -.7 296.2 -.7 296.3 -.7 329.4 12.3 329.4 12.3 307.5 37.6 307.5 37.6 329.5 47.8 329.5 83.7 329.5 83.7 329.2 83.9 329.2 83.9 296.7 55.5 296.7"/>
        <rect class="st0" x="17.4" y="315.3" width="12.9" height="13.8"/>
      </g>
      <polygon class="st0" points="165 277.8 165 316 155.4 316 155.4 277.8 145 277.8 145 316 137.4 316 137.4 277.8 126.9 277.8 126.9 296.8 91.3 296.8 91.3 297.1 91.3 297.1 91.3 329.3 91.3 329.3 101.2 329.3 101.2 329.3 119.3 329.3 119.3 315.8 101.2 315.8 101.2 307.8 126.9 307.8 126.9 329.2 126.9 329.3 175.5 329.3 175.5 277.8 165 277.8"/>
      <rect class="st0" x="-.2" y="335.4" width="83.7" height="13.6"/>
      <rect class="st0" x="92.1" y="335.4" width="83.7" height="13.6"/>
    </g>
    <g>
      <g>
        <rect class="st0" x="181.9" y="277.9" width="119.6" height="10.7"/>
        <polygon class="st0" points="237.8 296.7 237.8 307.8 256 307.8 256 316 230.1 316 230.1 296.2 230.1 296.2 219.8 296.2 181.5 296.2 181.5 296.3 181.5 329.4 194.6 329.4 194.6 307.5 219.8 307.5 219.8 329.5 230.1 329.5 266 329.5 266 329.2 266.1 329.2 266.1 296.7 237.8 296.7"/>
        <rect class="st0" x="199.6" y="315.3" width="12.9" height="13.8"/>
      </g>
      <polygon class="st0" points="347.3 277.8 347.3 316 337.7 316 337.7 277.8 327.3 277.8 327.3 316 319.6 316 319.6 277.8 309.2 277.8 309.2 296.8 273.5 296.8 273.5 297.1 273.5 297.1 273.5 329.3 273.5 329.3 283.5 329.3 283.5 329.3 301.6 329.3 301.6 315.8 283.5 315.8 283.5 307.8 309.2 307.8 309.2 329.2 309.2 329.3 357.7 329.3 357.7 277.8 347.3 277.8"/>
      <rect class="st0" x="182.1" y="335.4" width="83.7" height="13.6"/>
      <rect class="st0" x="274.4" y="335.4" width="83.7" height="13.6"/>
    </g>
    <g>
      <g>
        <rect class="st0" x="363.6" y="277.9" width="119.6" height="10.7"/>
        <polygon class="st0" points="419.4 296.7 419.4 307.8 437.7 307.8 437.7 316 411.8 316 411.8 296.2 411.8 296.2 401.5 296.2 363.2 296.2 363.2 296.3 363.2 329.4 376.2 329.4 376.2 307.5 401.5 307.5 401.5 329.5 411.8 329.5 447.6 329.5 447.6 329.2 447.8 329.2 447.8 296.7 419.4 296.7"/>
        <rect class="st0" x="381.3" y="315.3" width="12.9" height="13.8"/>
      </g>
      <polygon class="st0" points="529 277.8 529 316 519.4 316 519.4 277.8 509 277.8 509 316 501.3 316 501.3 277.8 490.9 277.8 490.9 296.8 455.2 296.8 455.2 297.1 455.2 297.1 455.2 329.3 455.2 329.3 465.2 329.3 465.2 329.3 483.2 329.3 483.2 315.8 465.2 315.8 465.2 307.8 490.9 307.8 490.9 329.2 490.9 329.3 539.4 329.3 539.4 277.8 529 277.8"/>
      <rect class="st0" x="363.8" y="335.4" width="83.7" height="13.6"/>
      <rect class="st0" x="456.1" y="335.4" width="83.7" height="13.6"/>
    </g>
    <g>
      <g>
        <rect class="st0" x="545.3" y="277.9" width="119.6" height="10.7"/>
        <polygon class="st0" points="601.1 296.7 601.1 307.8 619.4 307.8 619.4 316 593.4 316 593.4 296.2 593.4 296.2 583.2 296.2 544.9 296.2 544.9 296.3 544.9 329.4 557.9 329.4 557.9 307.5 583.2 307.5 583.2 329.5 593.4 329.5 629.3 329.5 629.3 329.2 629.5 329.2 629.5 296.7 601.1 296.7"/>
        <rect class="st0" x="563" y="315.3" width="12.9" height="13.8"/>
      </g>
      <polygon class="st0" points="710.6 277.8 710.6 316 701.1 316 701.1 277.8 690.6 277.8 690.6 316 683 316 683 277.8 672.5 277.8 672.5 296.8 636.9 296.8 636.9 297.1 636.9 297.1 636.9 329.3 636.9 329.3 646.8 329.3 646.8 329.3 664.9 329.3 664.9 315.8 646.8 315.8 646.8 307.8 672.5 307.8 672.5 329.2 672.5 329.3 721.1 329.3 721.1 277.8 710.6 277.8"/>
      <rect class="st0" x="545.4" y="335.4" width="83.7" height="13.6"/>
      <rect class="st0" x="637.7" y="335.4" width="83.7" height="13.6"/>
    </g>
    <g>
      <g>
        <rect class="st0" x="727" y="277.9" width="119.6" height="10.7"/>
        <polygon class="st0" points="782.8 296.7 782.8 307.8 801 307.8 801 316 775.1 316 775.1 296.2 775.1 296.2 764.8 296.2 726.5 296.2 726.5 296.3 726.5 329.4 739.6 329.4 739.6 307.5 764.8 307.5 764.8 329.5 775.1 329.5 811 329.5 811 329.2 811.2 329.2 811.2 296.7 782.8 296.7"/>
        <rect class="st0" x="744.6" y="315.3" width="12.9" height="13.8"/>
      </g>
      <polygon class="st0" points="892.3 277.8 892.3 316 882.7 316 882.7 277.8 872.3 277.8 872.3 316 864.6 316 864.6 277.8 854.2 277.8 854.2 296.8 818.5 296.8 818.5 297.1 818.5 297.1 818.5 329.3 818.5 329.3 828.5 329.3 828.5 329.3 846.6 329.3 846.6 315.8 828.5 315.8 828.5 307.8 854.2 307.8 854.2 329.2 854.2 329.3 902.7 329.3 902.7 277.8 892.3 277.8"/>
      <rect class="st0" x="727.1" y="335.4" width="83.7" height="13.6"/>
      <rect class="st0" x="819.4" y="335.4" width="83.7" height="13.6"/>
    </g>
    <g>
      <g>
        <rect class="st0" x="908.6" y="277.9" width="119.6" height="10.7"/>
        <polygon class="st0" points="964.5 296.7 964.5 307.8 982.7 307.8 982.7 316 956.8 316 956.8 296.2 956.8 296.2 946.5 296.2 908.2 296.2 908.2 296.3 908.2 329.4 921.2 329.4 921.2 307.5 946.5 307.5 946.5 329.5 956.8 329.5 992.7 329.5 992.7 329.2 992.8 329.2 992.8 296.7 964.5 296.7"/>
        <rect class="st0" x="926.3" y="315.3" width="12.9" height="13.8"/>
      </g>
      <polygon class="st0" points="1074 277.8 1074 316 1064.4 316 1064.4 277.8 1054 277.8 1054 316 1046.3 316 1046.3 277.8 1035.9 277.8 1035.9 296.8 1000.2 296.8 1000.2 297.1 1000.2 297.1 1000.2 329.3 1000.2 329.3 1010.2 329.3 1010.2 329.3 1028.3 329.3 1028.3 315.8 1010.2 315.8 1010.2 307.8 1035.9 307.8 1035.9 329.2 1035.9 329.3 1084.4 329.3 1084.4 277.8 1074 277.8"/>
      <rect class="st0" x="908.8" y="335.4" width="83.7" height="13.6"/>
      <rect class="st0" x="1001.1" y="335.4" width="83.7" height="13.6"/>
    </g>
    <g>
      <g>
        <rect class="st0" x="1090.3" y="277.9" width="119.6" height="10.7"/>
        <polygon class="st0" points="1146.1 296.7 1146.1 307.8 1164.4 307.8 1164.4 316 1138.5 316 1138.5 296.2 1138.5 296.2 1128.2 296.2 1089.9 296.2 1089.9 296.3 1089.9 329.4 1102.9 329.4 1102.9 307.5 1128.2 307.5 1128.2 329.5 1138.5 329.5 1174.3 329.5 1174.3 329.2 1174.5 329.2 1174.5 296.7 1146.1 296.7"/>
        <rect class="st0" x="1108" y="315.3" width="12.9" height="13.8"/>
      </g>
      <polygon class="st0" points="1255.7 277.8 1255.7 316 1246.1 316 1246.1 277.8 1235.6 277.8 1235.6 316 1228 316 1228 277.8 1217.6 277.8 1217.6 296.8 1181.9 296.8 1181.9 297.1 1181.9 297.1 1181.9 329.3 1181.9 329.3 1191.9 329.3 1191.9 329.3 1209.9 329.3 1209.9 315.8 1191.9 315.8 1191.9 307.8 1217.6 307.8 1217.6 329.2 1217.6 329.3 1266.1 329.3 1266.1 277.8 1255.7 277.8"/>
      <rect class="st0" x="1090.5" y="335.4" width="83.7" height="13.6"/>
      <rect class="st0" x="1182.8" y="335.4" width="83.7" height="13.6"/>
    </g>
    <g>
      <g>
        <rect class="st0" x="1272" y="277.9" width="119.6" height="10.7"/>
        <polygon class="st0" points="1327.8 296.7 1327.8 307.8 1346.1 307.8 1346.1 316 1320.1 316 1320.1 296.2 1320.1 296.2 1309.9 296.2 1271.6 296.2 1271.6 296.3 1271.6 329.4 1284.6 329.4 1284.6 307.5 1309.9 307.5 1309.9 329.5 1320.1 329.5 1356 329.5 1356 329.2 1356.2 329.2 1356.2 296.7 1327.8 296.7"/>
        <rect class="st0" x="1289.7" y="315.3" width="12.9" height="13.8"/>
      </g>
      <polygon class="st0" points="1437.3 277.8 1437.3 316 1427.7 316 1427.7 277.8 1417.3 277.8 1417.3 316 1409.7 316 1409.7 277.8 1399.2 277.8 1399.2 296.8 1363.6 296.8 1363.6 297.1 1363.6 297.1 1363.6 329.3 1363.6 329.3 1373.5 329.3 1373.5 329.3 1391.6 329.3 1391.6 315.8 1373.5 315.8 1373.5 307.8 1399.2 307.8 1399.2 329.2 1399.2 329.3 1447.8 329.3 1447.8 277.8 1437.3 277.8"/>
      <rect class="st0" x="1272.1" y="335.4" width="83.7" height="13.6"/>
      <rect class="st0" x="1364.4" y="335.4" width="83.7" height="13.6"/>
    </g>
    <g>
      <g>
        <rect class="st0" x="1453.6" y="277.9" width="119.6" height="10.7"/>
        <polygon class="st0" points="1509.5 296.7 1509.5 307.8 1527.7 307.8 1527.7 316 1501.8 316 1501.8 296.2 1501.8 296.2 1491.5 296.2 1453.2 296.2 1453.2 296.3 1453.2 329.4 1466.3 329.4 1466.3 307.5 1491.5 307.5 1491.5 329.5 1501.8 329.5 1537.7 329.5 1537.7 329.2 1537.8 329.2 1537.8 296.7 1509.5 296.7"/>
        <rect class="st0" x="1471.3" y="315.3" width="12.9" height="13.8"/>
      </g>
      <polygon class="st0" points="1619 277.8 1619 316 1609.4 316 1609.4 277.8 1599 277.8 1599 316 1591.3 316 1591.3 277.8 1580.9 277.8 1580.9 296.8 1545.2 296.8 1545.2 297.1 1545.2 297.1 1545.2 329.3 1545.2 329.3 1555.2 329.3 1555.2 329.3 1573.3 329.3 1573.3 315.8 1555.2 315.8 1555.2 307.8 1580.9 307.8 1580.9 329.2 1580.9 329.3 1629.4 329.3 1629.4 277.8 1619 277.8"/>
      <rect class="st0" x="1453.8" y="335.4" width="83.7" height="13.6"/>
      <rect class="st0" x="1546.1" y="335.4" width="83.7" height="13.6"/>
    </g>
    <g>
      <g>
        <rect class="st0" x="1635.3" y="277.9" width="119.6" height="10.7"/>
        <polygon class="st0" points="1691.1 296.7 1691.1 307.8 1709.4 307.8 1709.4 316 1683.5 316 1683.5 296.2 1683.5 296.2 1673.2 296.2 1634.9 296.2 1634.9 296.3 1634.9 329.4 1647.9 329.4 1647.9 307.5 1673.2 307.5 1673.2 329.5 1683.5 329.5 1719.3 329.5 1719.3 329.2 1719.5 329.2 1719.5 296.7 1691.1 296.7"/>
        <rect class="st0" x="1653" y="315.3" width="12.9" height="13.8"/>
      </g>
      <polygon class="st0" points="1800.7 277.8 1800.7 316 1791.1 316 1791.1 277.8 1780.7 277.8 1780.7 316 1773 316 1773 277.8 1762.6 277.8 1762.6 296.8 1726.9 296.8 1726.9 297.1 1726.9 297.1 1726.9 329.3 1726.9 329.3 1736.9 329.3 1736.9 329.3 1754.9 329.3 1754.9 315.8 1736.9 315.8 1736.9 307.8 1762.6 307.8 1762.6 329.2 1762.6 329.3 1811.1 329.3 1811.1 277.8 1800.7 277.8"/>
      <rect class="st0" x="1635.5" y="335.4" width="83.7" height="13.6"/>
      <rect class="st0" x="1727.8" y="335.4" width="83.7" height="13.6"/>
    </g>
    <g>
      <g>
        <rect class="st0" x="1817" y="277.9" width="119.6" height="10.7"/>
        <polygon class="st0" points="1872.8 296.7 1872.8 307.8 1891.1 307.8 1891.1 316 1865.2 316 1865.2 296.2 1865.2 296.2 1854.9 296.2 1816.6 296.2 1816.6 296.3 1816.6 329.4 1829.6 329.4 1829.6 307.5 1854.9 307.5 1854.9 329.5 1865.2 329.5 1901 329.5 1901 329.2 1901.2 329.2 1901.2 296.7 1872.8 296.7"/>
        <rect class="st0" x="1834.7" y="315.3" width="12.9" height="13.8"/>
      </g>
      <polygon class="st0" points="1982.3 277.8 1982.3 316 1972.8 316 1972.8 277.8 1962.3 277.8 1962.3 316 1954.7 316 1954.7 277.8 1944.2 277.8 1944.2 296.8 1908.6 296.8 1908.6 297.1 1908.6 297.1 1908.6 329.3 1908.6 329.3 1918.5 329.3 1918.5 329.3 1936.6 329.3 1936.6 315.8 1918.5 315.8 1918.5 307.8 1944.2 307.8 1944.2 329.2 1944.2 329.3 1992.8 329.3 1992.8 277.8 1982.3 277.8"/>
      <rect class="st0" x="1817.1" y="335.4" width="83.7" height="13.6"/>
      <rect class="st0" x="1909.5" y="335.4" width="83.7" height="13.6"/>
    </g>
  </g>
  <g>
    <g>
      <g>
        <rect class="st0" x="-.3" y="727.1" width="119.6" height="10.7"/>
        <polygon class="st0" points="55.5 745.9 55.5 757 73.8 757 73.8 765.2 47.8 765.2 47.8 745.4 47.8 745.4 37.6 745.4 -.7 745.4 -.7 745.6 -.7 778.6 12.3 778.6 12.3 756.7 37.6 756.7 37.6 778.8 47.8 778.8 83.7 778.8 83.7 778.4 83.9 778.4 83.9 745.9 55.5 745.9"/>
        <rect class="st0" x="17.4" y="764.5" width="12.9" height="13.8"/>
      </g>
      <polygon class="st0" points="165 727.1 165 765.2 155.4 765.2 155.4 727.1 145 727.1 145 765.2 137.4 765.2 137.4 727.1 126.9 727.1 126.9 746 91.3 746 91.3 746.4 91.3 746.4 91.3 778.5 91.3 778.6 101.2 778.6 101.2 778.5 119.3 778.5 119.3 765 101.2 765 101.2 757 126.9 757 126.9 778.5 126.9 778.6 175.5 778.6 175.5 727.1 165 727.1"/>
      <rect class="st0" x="-.2" y="706.3" width="83.7" height="13.6"/>
      <rect class="st0" x="92.1" y="706.3" width="83.7" height="13.6"/>
    </g>
    <g>
      <g>
        <rect class="st0" x="181.9" y="727.1" width="119.6" height="10.7"/>
        <polygon class="st0" points="237.8 745.9 237.8 757 256 757 256 765.2 230.1 765.2 230.1 745.4 230.1 745.4 219.8 745.4 181.5 745.4 181.5 745.6 181.5 778.6 194.6 778.6 194.6 756.7 219.8 756.7 219.8 778.8 230.1 778.8 266 778.8 266 778.4 266.1 778.4 266.1 745.9 237.8 745.9"/>
        <rect class="st0" x="199.6" y="764.5" width="12.9" height="13.8"/>
      </g>
      <polygon class="st0" points="347.3 727.1 347.3 765.2 337.7 765.2 337.7 727.1 327.3 727.1 327.3 765.2 319.6 765.2 319.6 727.1 309.2 727.1 309.2 746 273.5 746 273.5 746.4 273.5 746.4 273.5 778.5 273.5 778.6 283.5 778.6 283.5 778.5 301.6 778.5 301.6 765 283.5 765 283.5 757 309.2 757 309.2 778.5 309.2 778.6 357.7 778.6 357.7 727.1 347.3 727.1"/>
      <rect class="st0" x="182.1" y="706.3" width="83.7" height="13.6"/>
      <rect class="st0" x="274.4" y="706.3" width="83.7" height="13.6"/>
    </g>
    <g>
      <g>
        <rect class="st0" x="363.6" y="727.1" width="119.6" height="10.7"/>
        <polygon class="st0" points="419.4 745.9 419.4 757 437.7 757 437.7 765.2 411.8 765.2 411.8 745.4 411.8 745.4 401.5 745.4 363.2 745.4 363.2 745.6 363.2 778.6 376.2 778.6 376.2 756.7 401.5 756.7 401.5 778.8 411.8 778.8 447.6 778.8 447.6 778.4 447.8 778.4 447.8 745.9 419.4 745.9"/>
        <rect class="st0" x="381.3" y="764.5" width="12.9" height="13.8"/>
      </g>
      <polygon class="st0" points="529 727.1 529 765.2 519.4 765.2 519.4 727.1 509 727.1 509 765.2 501.3 765.2 501.3 727.1 490.9 727.1 490.9 746 455.2 746 455.2 746.4 455.2 746.4 455.2 778.5 455.2 778.6 465.2 778.6 465.2 778.5 483.2 778.5 483.2 765 465.2 765 465.2 757 490.9 757 490.9 778.5 490.9 778.6 539.4 778.6 539.4 727.1 529 727.1"/>
      <rect class="st0" x="363.8" y="706.3" width="83.7" height="13.6"/>
      <rect class="st0" x="456.1" y="706.3" width="83.7" height="13.6"/>
    </g>
    <g>
      <g>
        <rect class="st0" x="545.3" y="727.1" width="119.6" height="10.7"/>
        <polygon class="st0" points="601.1 745.9 601.1 757 619.4 757 619.4 765.2 593.4 765.2 593.4 745.4 593.4 745.4 583.2 745.4 544.9 745.4 544.9 745.6 544.9 778.6 557.9 778.6 557.9 756.7 583.2 756.7 583.2 778.8 593.4 778.8 629.3 778.8 629.3 778.4 629.5 778.4 629.5 745.9 601.1 745.9"/>
        <rect class="st0" x="563" y="764.5" width="12.9" height="13.8"/>
      </g>
      <polygon class="st0" points="710.6 727.1 710.6 765.2 701.1 765.2 701.1 727.1 690.6 727.1 690.6 765.2 683 765.2 683 727.1 672.5 727.1 672.5 746 636.9 746 636.9 746.4 636.9 746.4 636.9 778.5 636.9 778.6 646.8 778.6 646.8 778.5 664.9 778.5 664.9 765 646.8 765 646.8 757 672.5 757 672.5 778.5 672.5 778.6 721.1 778.6 721.1 727.1 710.6 727.1"/>
      <rect class="st0" x="545.4" y="706.3" width="83.7" height="13.6"/>
      <rect class="st0" x="637.7" y="706.3" width="83.7" height="13.6"/>
    </g>
    <g>
      <g>
        <rect class="st0" x="727" y="727.1" width="119.6" height="10.7"/>
        <polygon class="st0" points="782.8 745.9 782.8 757 801 757 801 765.2 775.1 765.2 775.1 745.4 775.1 745.4 764.8 745.4 726.5 745.4 726.5 745.6 726.5 778.6 739.6 778.6 739.6 756.7 764.8 756.7 764.8 778.8 775.1 778.8 811 778.8 811 778.4 811.2 778.4 811.2 745.9 782.8 745.9"/>
        <rect class="st0" x="744.6" y="764.5" width="12.9" height="13.8"/>
      </g>
      <polygon class="st0" points="892.3 727.1 892.3 765.2 882.7 765.2 882.7 727.1 872.3 727.1 872.3 765.2 864.6 765.2 864.6 727.1 854.2 727.1 854.2 746 818.5 746 818.5 746.4 818.5 746.4 818.5 778.5 818.5 778.6 828.5 778.6 828.5 778.5 846.6 778.5 846.6 765 828.5 765 828.5 757 854.2 757 854.2 778.5 854.2 778.6 902.7 778.6 902.7 727.1 892.3 727.1"/>
      <rect class="st0" x="727.1" y="706.3" width="83.7" height="13.6"/>
      <rect class="st0" x="819.4" y="706.3" width="83.7" height="13.6"/>
    </g>
    <g>
      <g>
        <rect class="st0" x="908.6" y="727.1" width="119.6" height="10.7"/>
        <polygon class="st0" points="964.5 745.9 964.5 757 982.7 757 982.7 765.2 956.8 765.2 956.8 745.4 956.8 745.4 946.5 745.4 908.2 745.4 908.2 745.6 908.2 778.6 921.2 778.6 921.2 756.7 946.5 756.7 946.5 778.8 956.8 778.8 992.7 778.8 992.7 778.4 992.8 778.4 992.8 745.9 964.5 745.9"/>
        <rect class="st0" x="926.3" y="764.5" width="12.9" height="13.8"/>
      </g>
      <polygon class="st0" points="1074 727.1 1074 765.2 1064.4 765.2 1064.4 727.1 1054 727.1 1054 765.2 1046.3 765.2 1046.3 727.1 1035.9 727.1 1035.9 746 1000.2 746 1000.2 746.4 1000.2 746.4 1000.2 778.5 1000.2 778.6 1010.2 778.6 1010.2 778.5 1028.3 778.5 1028.3 765 1010.2 765 1010.2 757 1035.9 757 1035.9 778.5 1035.9 778.6 1084.4 778.6 1084.4 727.1 1074 727.1"/>
      <rect class="st0" x="908.8" y="706.3" width="83.7" height="13.6"/>
      <rect class="st0" x="1001.1" y="706.3" width="83.7" height="13.6"/>
    </g>
    <g>
      <g>
        <rect class="st0" x="1090.3" y="727.1" width="119.6" height="10.7"/>
        <polygon class="st0" points="1146.1 745.9 1146.1 757 1164.4 757 1164.4 765.2 1138.5 765.2 1138.5 745.4 1138.5 745.4 1128.2 745.4 1089.9 745.4 1089.9 745.6 1089.9 778.6 1102.9 778.6 1102.9 756.7 1128.2 756.7 1128.2 778.8 1138.5 778.8 1174.3 778.8 1174.3 778.4 1174.5 778.4 1174.5 745.9 1146.1 745.9"/>
        <rect class="st0" x="1108" y="764.5" width="12.9" height="13.8"/>
      </g>
      <polygon class="st0" points="1255.7 727.1 1255.7 765.2 1246.1 765.2 1246.1 727.1 1235.6 727.1 1235.6 765.2 1228 765.2 1228 727.1 1217.6 727.1 1217.6 746 1181.9 746 1181.9 746.4 1181.9 746.4 1181.9 778.5 1181.9 778.6 1191.9 778.6 1191.9 778.5 1209.9 778.5 1209.9 765 1191.9 765 1191.9 757 1217.6 757 1217.6 778.5 1217.6 778.6 1266.1 778.6 1266.1 727.1 1255.7 727.1"/>
      <rect class="st0" x="1090.5" y="706.3" width="83.7" height="13.6"/>
      <rect class="st0" x="1182.8" y="706.3" width="83.7" height="13.6"/>
    </g>
    <g>
      <g>
        <rect class="st0" x="1272" y="727.1" width="119.6" height="10.7"/>
        <polygon class="st0" points="1327.8 745.9 1327.8 757 1346.1 757 1346.1 765.2 1320.1 765.2 1320.1 745.4 1320.1 745.4 1309.9 745.4 1271.6 745.4 1271.6 745.6 1271.6 778.6 1284.6 778.6 1284.6 756.7 1309.9 756.7 1309.9 778.8 1320.1 778.8 1356 778.8 1356 778.4 1356.2 778.4 1356.2 745.9 1327.8 745.9"/>
        <rect class="st0" x="1289.7" y="764.5" width="12.9" height="13.8"/>
      </g>
      <polygon class="st0" points="1437.3 727.1 1437.3 765.2 1427.7 765.2 1427.7 727.1 1417.3 727.1 1417.3 765.2 1409.7 765.2 1409.7 727.1 1399.2 727.1 1399.2 746 1363.6 746 1363.6 746.4 1363.6 746.4 1363.6 778.5 1363.6 778.6 1373.5 778.6 1373.5 778.5 1391.6 778.5 1391.6 765 1373.5 765 1373.5 757 1399.2 757 1399.2 778.5 1399.2 778.6 1447.8 778.6 1447.8 727.1 1437.3 727.1"/>
      <rect class="st0" x="1272.1" y="706.3" width="83.7" height="13.6"/>
      <rect class="st0" x="1364.4" y="706.3" width="83.7" height="13.6"/>
    </g>
    <g>
      <g>
        <rect class="st0" x="1453.6" y="727.1" width="119.6" height="10.7"/>
        <polygon class="st0" points="1509.5 745.9 1509.5 757 1527.7 757 1527.7 765.2 1501.8 765.2 1501.8 745.4 1501.8 745.4 1491.5 745.4 1453.2 745.4 1453.2 745.6 1453.2 778.6 1466.3 778.6 1466.3 756.7 1491.5 756.7 1491.5 778.8 1501.8 778.8 1537.7 778.8 1537.7 778.4 1537.8 778.4 1537.8 745.9 1509.5 745.9"/>
        <rect class="st0" x="1471.3" y="764.5" width="12.9" height="13.8"/>
      </g>
      <polygon class="st0" points="1619 727.1 1619 765.2 1609.4 765.2 1609.4 727.1 1599 727.1 1599 765.2 1591.3 765.2 1591.3 727.1 1580.9 727.1 1580.9 746 1545.2 746 1545.2 746.4 1545.2 746.4 1545.2 778.5 1545.2 778.6 1555.2 778.6 1555.2 778.5 1573.3 778.5 1573.3 765 1555.2 765 1555.2 757 1580.9 757 1580.9 778.5 1580.9 778.6 1629.4 778.6 1629.4 727.1 1619 727.1"/>
      <rect class="st0" x="1453.8" y="706.3" width="83.7" height="13.6"/>
      <rect class="st0" x="1546.1" y="706.3" width="83.7" height="13.6"/>
    </g>
    <g>
      <g>
        <rect class="st0" x="1635.3" y="727.1" width="119.6" height="10.7"/>
        <polygon class="st0" points="1691.1 745.9 1691.1 757 1709.4 757 1709.4 765.2 1683.5 765.2 1683.5 745.4 1683.5 745.4 1673.2 745.4 1634.9 745.4 1634.9 745.6 1634.9 778.6 1647.9 778.6 1647.9 756.7 1673.2 756.7 1673.2 778.8 1683.5 778.8 1719.3 778.8 1719.3 778.4 1719.5 778.4 1719.5 745.9 1691.1 745.9"/>
        <rect class="st0" x="1653" y="764.5" width="12.9" height="13.8"/>
      </g>
      <polygon class="st0" points="1800.7 727.1 1800.7 765.2 1791.1 765.2 1791.1 727.1 1780.7 727.1 1780.7 765.2 1773 765.2 1773 727.1 1762.6 727.1 1762.6 746 1726.9 746 1726.9 746.4 1726.9 746.4 1726.9 778.5 1726.9 778.6 1736.9 778.6 1736.9 778.5 1754.9 778.5 1754.9 765 1736.9 765 1736.9 757 1762.6 757 1762.6 778.5 1762.6 778.6 1811.1 778.6 1811.1 727.1 1800.7 727.1"/>
      <rect class="st0" x="1635.5" y="706.3" width="83.7" height="13.6"/>
      <rect class="st0" x="1727.8" y="706.3" width="83.7" height="13.6"/>
    </g>
    <g>
      <g>
        <rect class="st0" x="1817" y="727.1" width="119.6" height="10.7"/>
        <polygon class="st0" points="1872.8 745.9 1872.8 757 1891.1 757 1891.1 765.2 1865.2 765.2 1865.2 745.4 1865.2 745.4 1854.9 745.4 1816.6 745.4 1816.6 745.6 1816.6 778.6 1829.6 778.6 1829.6 756.7 1854.9 756.7 1854.9 778.8 1865.2 778.8 1901 778.8 1901 778.4 1901.2 778.4 1901.2 745.9 1872.8 745.9"/>
        <rect class="st0" x="1834.7" y="764.5" width="12.9" height="13.8"/>
      </g>
      <polygon class="st0" points="1982.3 727.1 1982.3 765.2 1972.8 765.2 1972.8 727.1 1962.3 727.1 1962.3 765.2 1954.7 765.2 1954.7 727.1 1944.2 727.1 1944.2 746 1908.6 746 1908.6 746.4 1908.6 746.4 1908.6 778.5 1908.6 778.6 1918.5 778.6 1918.5 778.5 1936.6 778.5 1936.6 765 1918.5 765 1918.5 757 1944.2 757 1944.2 778.5 1944.2 778.6 1992.8 778.6 1992.8 727.1 1982.3 727.1"/>
      <rect class="st0" x="1817.1" y="706.3" width="83.7" height="13.6"/>
      <rect class="st0" x="1909.5" y="706.3" width="83.7" height="13.6"/>
    </g>
  </g>
</svg>