<?xml version="1.0" encoding="UTF-8"?>
<svg id="Layer_2" data-name="Layer 2" xmlns="http://www.w3.org/2000/svg" viewBox="0 0 18.74 7.91">
  <defs>
    <style>
      .cls-1 {
        fill: #fff;
      }

      .cls-2 {
        fill: #ffc814;
      }
    </style>
  </defs>
  <g id="Content">
    <g>
      <path class="cls-1" d="M1.48,5.8c-.11-.07-.22-.1-.35-.1H.35v2.17h.38v-.69h.4c.13,0,.24-.03.35-.1.11-.07.19-.16.26-.27s.1-.24.1-.37-.03-.25-.1-.37c-.06-.11-.15-.2-.26-.27ZM1.4,6.62c-.03.06-.07.1-.13.14-.05.03-.11.05-.17.05h-.37v-.74h.37c.06,0,.12.02.17.05.05.03.1.08.13.13.03.06.05.12.05.18s-.02.13-.05.19Z"/>
      <path class="cls-1" d="M3.24,6.37c-.12-.07-.25-.11-.4-.11s-.28.04-.4.11c-.12.07-.22.17-.29.3s-.11.26-.11.41.04.29.11.41.17.23.29.3c.12.07.26.11.4.11s.28-.04.4-.11c.12-.07.22-.17.29-.3s.11-.26.11-.41-.04-.29-.11-.41-.17-.22-.29-.3ZM3.2,7.31c-.04.07-.09.12-.15.16s-.13.06-.21.06-.15-.02-.21-.06-.11-.09-.15-.16c-.04-.07-.06-.14-.06-.22s.02-.15.06-.22c.04-.07.09-.12.15-.16s.13-.06.21-.06.15.02.21.06.11.09.15.16.06.14.06.22-.02.15-.06.22Z"/>
      <path class="cls-1" d="M4.4,6.41c-.07.06-.13.12-.17.2v-.32h-.32v1.57h.38v-.83c0-.07.02-.13.05-.19s.08-.11.13-.14c.05-.03.11-.05.18-.05h.19v-.37h-.08c-.14,0-.25.04-.35.12Z"/>
      <path class="cls-1" d="M5.54,6.7c.06-.04.14-.06.21-.06.09,0,.17.03.25.09s.12.14.15.23l.33-.05c-.02-.12-.07-.23-.14-.33-.07-.1-.16-.17-.26-.23-.11-.06-.22-.08-.34-.08-.14,0-.27.04-.39.11-.12.07-.21.17-.28.3-.07.13-.1.26-.1.41s.03.29.1.41c.07.13.16.23.28.3.12.07.25.11.39.11.12,0,.24-.03.34-.08.11-.06.19-.13.26-.23.07-.1.12-.21.14-.33l-.33-.05c-.03.09-.08.17-.15.23-.07.06-.16.09-.25.09-.08,0-.15-.02-.21-.06s-.12-.09-.15-.16c-.04-.07-.06-.14-.06-.22s.02-.15.06-.22c.04-.07.09-.12.15-.16Z"/>
      <path class="cls-1" d="M7.84,6.37c-.11-.07-.24-.11-.38-.11s-.27.04-.39.11c-.12.07-.21.17-.28.3-.07.13-.1.26-.1.41s.03.28.1.41c.07.13.16.23.28.3.12.07.25.11.39.11s.27-.03.39-.1c.12-.07.21-.16.28-.28l-.28-.15c-.09.13-.22.2-.38.2-.1,0-.19-.03-.27-.1-.08-.06-.13-.14-.15-.24h1.15s0-.1,0-.15c0-.15-.03-.29-.1-.41-.06-.12-.15-.22-.26-.3ZM7.05,6.92c.02-.09.07-.17.15-.23.07-.06.16-.09.26-.09s.18.03.26.09c.07.06.12.14.15.23h-.81Z"/>
      <path class="cls-1" d="M8.87,7.47s-.02-.03-.02-.06v-1.81h-.38v1.79c0,.09.02.17.06.24.04.07.1.13.17.17s.15.06.23.06h.05v-.37h-.05s-.04,0-.06-.02Z"/>
      <path class="cls-1" d="M10.43,6.54c-.04-.07-.09-.12-.15-.17-.1-.07-.21-.11-.35-.11s-.27.04-.39.11c-.12.07-.21.17-.28.3-.07.12-.1.26-.1.41s.03.29.1.41c.07.13.16.23.28.3.12.07.25.11.39.11s.25-.04.35-.11c.06-.05.11-.1.15-.17v.25h.32v-1.57h-.32v.25ZM10.31,7.31c-.04.07-.09.12-.15.16s-.13.06-.21.06-.15-.02-.21-.06-.11-.09-.15-.16c-.04-.07-.06-.14-.06-.22s.02-.15.06-.22c.04-.07.09-.12.15-.16s.13-.06.21-.06.15.02.21.06.11.09.15.16.06.14.06.22-.02.15-.06.22Z"/>
      <rect class="cls-1" x="11.05" y="6.3" width=".38" height="1.57"/>
      <rect class="cls-1" x="11.04" y="5.78" width=".4" height=".33"/>
      <path class="cls-1" d="M12.82,6.36c-.1-.07-.21-.1-.32-.1s-.22.04-.31.11c-.05.04-.1.1-.14.15v-.23h-.32v1.57h.38v-.87c0-.09.03-.17.09-.24s.14-.1.22-.1.16.03.23.1c.06.07.09.15.09.24v.87h.38v-.89c0-.13-.03-.25-.08-.36-.05-.11-.13-.2-.23-.26Z"/>
      <path class="cls-1" d="M15.36,7.39c-.12.09-.25.14-.39.14-.12,0-.23-.03-.33-.1s-.18-.16-.24-.27c-.06-.12-.09-.24-.09-.38s.03-.26.09-.38c.06-.12.14-.21.24-.27s.21-.1.33-.1c.14,0,.27.05.39.14s.2.22.24.37l.33-.05c-.04-.16-.1-.31-.2-.43-.1-.13-.21-.23-.35-.3s-.28-.11-.44-.11c-.18,0-.35.05-.51.15s-.28.24-.37.41c-.09.17-.14.36-.14.57s.05.39.14.57c.09.17.22.31.37.41s.33.15.51.15c.15,0,.3-.04.44-.11s.25-.17.35-.3c.1-.13.16-.27.2-.43l-.33-.04c-.05.15-.13.27-.24.36Z"/>
      <path class="cls-1" d="M17.37,6.37c-.12-.07-.25-.11-.4-.11s-.28.04-.4.11c-.12.07-.22.17-.29.3s-.11.26-.11.41.04.29.11.41c.07.13.17.23.29.3.12.07.26.11.4.11s.28-.04.4-.11c.12-.07.22-.17.29-.3s.11-.26.11-.41-.04-.29-.11-.41-.17-.22-.29-.3ZM17.33,7.31c-.04.07-.09.12-.15.16s-.13.06-.21.06-.15-.02-.21-.06-.11-.09-.15-.16c-.04-.07-.06-.14-.06-.22s.02-.15.06-.22c.04-.07.09-.12.15-.16s.13-.06.21-.06.15.02.21.06.11.09.15.16.06.14.06.22-.02.15-.06.22Z"/>
      <path class="cls-1" d="M18.48,7.48c-.04-.05-.1-.08-.17-.08-.07,0-.12.02-.17.07-.05.05-.07.11-.07.18,0,.07.02.12.07.18s.1.08.17.08.12-.02.17-.07.07-.11.07-.18c0-.07-.02-.13-.07-.18Z"/>
    </g>
    <g>
      <g>
        <path class="cls-2" d="M1.27,4.57h0c-.7,0-1.27-.57-1.27-1.27v-1.47h0c.7,0,1.27.57,1.27,1.27v1.47Z"/>
        <path class="cls-2" d="M4.51,4.57h0c-.7,0-1.27-.57-1.27-1.27v-.79c0-.6-.48-1.08-1.08-1.08h-.87C.58,1.43.01.86.01.16H.01s2.15,0,2.15,0c1.3,0,2.35,1.05,2.35,2.35v2.07Z"/>
      </g>
      <g>
        <path class="cls-2" d="M14.02.16h0c.7,0,1.27.57,1.27,1.27v1.47s0,0,0,0c-.7,0-1.27-.57-1.27-1.27V.16Z"/>
        <path class="cls-2" d="M10.79.16h0c.7,0,1.27.57,1.27,1.27v.79c0,.6.48,1.08,1.08,1.08h.87c.7,0,1.27.57,1.27,1.27h0s-2.15,0-2.15,0c-1.3,0-2.35-1.05-2.35-2.35V.16Z"/>
      </g>
      <path class="cls-2" d="M17.32,4.56h0c-.7,0-1.27-.57-1.27-1.27v-1.46c0-.92.75-1.67,1.67-1.67h1.02v.25c0,.56-.46,1.02-1.02,1.02h0c-.22,0-.39.18-.39.39v2.74Z"/>
      <path class="cls-2" d="M6.52,4.45c-1.19-.69-1.55-2.26-.77-3.41.66-.97,1.97-1.32,3.03-.79,1.25.62,1.7,2.16,1.01,3.35h0c-.51-.3-.87-.8-.96-1.39-.06-.35-.29-.68-.65-.84-.47-.21-1.03-.06-1.34.35-.4.54-.24,1.3.33,1.63.29.17.63.2.93.09.25-.09.52-.03.69.17l.03.03c.28.32.16.83-.24.98-.66.25-1.42.2-2.06-.17Z"/>
    </g>
  </g>
</svg>