<?xml version="1.0" encoding="UTF-8"?>
<svg id="Layer_2" data-name="Layer 2" xmlns="http://www.w3.org/2000/svg" viewBox="0 0 40.39 24.32">
  <defs>
    <style>
      .cls-1 {
        fill: #ffcc2e;
      }

      .cls-2 {
        fill: #fff;
      }

      .cls-3 {
        fill: #ffd158;
      }

      .cls-4 {
        fill: #ffcf44;
      }

      .cls-5 {
        fill: #ffc814;
      }

      .cls-6 {
        fill: #ffd772;
      }
    </style>
  </defs>
  <g id="Content">
    <g>
      <g>
        <path class="cls-5" d="M19.31,13.47l-.9-.61c.62-.26,1.66-.69,2.96-1.19,5.65-2.19,10.46-3.61,14.03-2.84,1.83.4,2.25,1.23,2.33,1.41.24.54.14,1.07.1,1.3-.46,2.38-5.09,4.21-5.53,4.38-.58-.24-1.16-.49-1.75-.73.1-.04,1.33-.5,1.47-1.53,0-.05.05-.41-.11-.79-.59-1.39-2.94-1.56-4.2-1.57-.61,0-1.22.05-1.83.14-1.2.17-2.38.48-3.54.86-1.03.34-2.04.73-3.03,1.17Z"/>
        <path class="cls-1" d="M16.39,15.68l-1.07.18c.27-.62.74-1.64,1.33-2.9,2.59-5.48,5.1-9.81,8.22-11.71,1.6-.97,2.48-.66,2.66-.58.55.22.84.68.96.88,1.3,2.05-.8,6.55-1,6.99-.59.22-1.18.45-1.77.67.05-.1.62-1.28.02-2.12-.03-.04-.24-.34-.62-.5-1.38-.6-3.21.9-4.13,1.76-.45.42-.85.88-1.23,1.36-.75.95-1.4,1.99-1.98,3.06-.52.95-.98,1.93-1.4,2.93Z"/>
        <path class="cls-4" d="M15.38,18.75l-.7.83c-.19-.65-.5-1.73-.86-3.07-1.56-5.86-2.45-10.79-1.3-14.25C13.11.47,13.98.15,14.17.09c.56-.18,1.08-.02,1.3.04,2.32.72,3.63,5.51,3.75,5.98-.3.55-.61,1.11-.91,1.66-.03-.11-.36-1.37-1.36-1.63-.05-.01-.4-.1-.8.02-1.44.43-1.87,2.76-2.01,4.01-.07.61-.08,1.22-.06,1.83.04,1.21.22,2.42.47,3.61.22,1.06.5,2.11.83,3.14Z"/>
        <path class="cls-3" d="M16.37,21.65l-.02,1.08c-.56-.38-1.48-1.03-2.6-1.85-4.9-3.57-8.69-6.84-9.97-10.26-.66-1.75-.18-2.56-.08-2.72.32-.5.82-.7,1.04-.78,2.26-.9,6.29,2,6.68,2.29.11.62.22,1.24.33,1.86-.09-.07-1.14-.84-2.08-.41-.05.02-.37.18-.61.52-.85,1.24.28,3.32.95,4.38.33.52.7,1,1.1,1.47.8.92,1.69,1.75,2.63,2.51.84.69,1.72,1.32,2.62,1.92Z"/>
        <path class="cls-6" d="M18.44,23.27l.64.87c-.68.04-1.8.09-3.19.13-6.06.17-11.06-.1-14.17-2.02C.14,21.26.02,20.34,0,20.14c-.05-.59.22-1.05.34-1.26,1.24-2.09,6.2-2.26,6.68-2.27.47.42.93.85,1.4,1.27-.11,0-1.42.03-1.9.95-.02.05-.19.37-.16.78.09,1.5,2.25,2.45,3.43,2.88.58.21,1.17.36,1.77.49,1.19.24,2.41.35,3.62.38,1.08.03,2.17,0,3.25-.08Z"/>
      </g>
      <g>
        <g>
          <path class="cls-2" d="M19.26,22.18h0c-.85,0-1.54-.69-1.54-1.54v-1.78h0c.85,0,1.54.69,1.54,1.54v1.78Z"/>
          <path class="cls-2" d="M23.17,22.18h0c-.85,0-1.54-.69-1.54-1.54v-.96c0-.72-.58-1.31-1.31-1.31h-1.06c-.85,0-1.54-.69-1.54-1.54h0s2.59,0,2.59,0c1.57,0,2.84,1.27,2.84,2.84v2.5Z"/>
        </g>
        <g>
          <path class="cls-2" d="M34.68,16.83h0c.85,0,1.54.69,1.54,1.54v1.78s0,0,0,0c-.85,0-1.54-.69-1.54-1.54v-1.78Z"/>
          <path class="cls-2" d="M30.77,16.83h0c.85,0,1.54.69,1.54,1.54v.96c0,.72.58,1.31,1.31,1.31h1.06c.85,0,1.54.69,1.54,1.54h0s-2.59,0-2.59,0c-1.57,0-2.84-1.27-2.84-2.84v-2.5Z"/>
        </g>
        <path class="cls-2" d="M38.68,22.16h0c-.85,0-1.54-.69-1.54-1.54v-1.77c0-1.11.9-2.02,2.02-2.02h1.23v.31c0,.68-.55,1.23-1.23,1.23h0c-.26,0-.48.21-.48.48v3.31Z"/>
        <path class="cls-2" d="M25.61,22.03c-1.43-.84-1.88-2.73-.93-4.13.8-1.18,2.38-1.59,3.66-.96,1.52.75,2.06,2.62,1.22,4.05h0c-.62-.36-1.05-.97-1.17-1.68-.07-.43-.35-.82-.79-1.02-.57-.25-1.25-.07-1.62.43-.49.66-.29,1.57.4,1.97.35.2.76.24,1.13.11.3-.1.63-.03.83.21l.03.04c.34.39.19,1-.29,1.18-.8.31-1.72.24-2.49-.21Z"/>
      </g>
    </g>
  </g>
</svg>