<?xml version="1.0" encoding="UTF-8"?>
<svg id="Flag" xmlns="http://www.w3.org/2000/svg" version="1.1" viewBox="0 0 1990 1050">
  <!-- Generator: Adobe Illustrator 29.5.0, SVG Export Plug-In . SVG Version: 2.1.0 Build 137)  -->
  <defs>
    <style>
      .st0 {
        fill: #fff;
      }

      .st1 {
        fill: #00247d;
      }

      .st2 {
        fill: #ce1124;
      }
    </style>
  </defs>
  <g>
    <rect class="st0" y="0" width="1989.5" height="1048.2"/>
    <polygon class="st2" points="1989.6 419.5 1113.6 419.5 1113.6 .2 874.5 .2 874.5 419.5 .8 419.5 .8 629.1 874.5 629.1 874.5 1048.3 1113.6 1048.3 1113.6 629.1 1989.6 629.1 1989.6 419.5"/>
  </g>
  <g>
    <polygon class="st1" points="0 122.2 0 350.4 434 350.4 0 122.2"/>
    <polygon class="st1" points="239.4 0 233.1 .3 795.7 297.8 795.7 0 239.4 0"/>
    <polygon class="st2" points="667.8 348.9 0 .1 0 82.3 508.7 348.9 667.8 348.9"/>
    <polygon class="st2" points="1322.2 699.4 1990 1048.2 1990 966 1481.3 699.4 1322.2 699.4"/>
  </g>
  <g>
    <polygon class="st1" points="0 927.9 0 699.7 434 699.7 0 927.9"/>
    <polygon class="st1" points="239.4 1050 233.1 1049.7 795.7 752.2 795.7 1050 239.4 1050"/>
    <polygon class="st2" points="664.4 699.3 .5 1048 155.7 1048.2 796.4 713.5 796.4 699.3 664.4 699.3"/>
  </g>
  <g>
    <polygon class="st1" points="1990 122.1 1990 350.3 1556.1 350.3 1990 122.1"/>
    <polygon class="st1" points="1750.6 0 1757 .3 1194.3 297.8 1194.3 0 1750.6 0"/>
    <polygon class="st2" points="1989.4 .5 1840 .5 1194.9 337.5 1194.9 349.3 1331.4 349.3 1989.4 .5"/>
  </g>
  <g>
    <polygon class="st1" points="1990 927.8 1990 699.6 1556.1 699.6 1990 927.8"/>
    <polygon class="st1" points="1750.6 1049.9 1757 1049.6 1194.3 752.1 1194.3 1049.9 1750.6 1049.9"/>
  </g>
</svg>